<?xml version="1.0" encoding="UTF-8" standalone="no"?>
<svg
   xmlns:dc="http://purl.org/dc/elements/1.1/"
   xmlns:cc="http://creativecommons.org/ns#"
   xmlns:rdf="http://www.w3.org/1999/02/22-rdf-syntax-ns#"
   xmlns:svg="http://www.w3.org/2000/svg"
   xmlns="http://www.w3.org/2000/svg"
   xmlns:sodipodi="http://sodipodi.sourceforge.net/DTD/sodipodi-0.dtd"
   xmlns:inkscape="http://www.inkscape.org/namespaces/inkscape"
   width="1920"
   height="1080"
   viewBox="0 0 507.99999 285.75002"
   version="1.1"
   id="svg8"
   sodipodi:docname="splashbg.svg"
   inkscape:version="1.0.2-2 (e86c870879, 2021-01-15)">
  <defs
     id="defs2" />
  <sodipodi:namedview
     id="base"
     pagecolor="#ffffff"
     bordercolor="#666666"
     borderopacity="1.0"
     inkscape:pageopacity="0.0"
     inkscape:pageshadow="2"
     inkscape:zoom="0.32"
     inkscape:cx="1059.871"
     inkscape:cy="-66.697904"
     inkscape:document-units="px"
     inkscape:current-layer="layer1"
     inkscape:document-rotation="0"
     showgrid="false"
     units="px"
     inkscape:window-width="1920"
     inkscape:window-height="1017"
     inkscape:window-x="-8"
     inkscape:window-y="-8"
     inkscape:window-maximized="1" />
  <metadata
     id="metadata5">
    <rdf:RDF>
      <cc:Work
         rdf:about="">
        <dc:format>image/svg+xml</dc:format>
        <dc:type
           rdf:resource="http://purl.org/dc/dcmitype/StillImage" />
        <dc:title></dc:title>
      </cc:Work>
    </rdf:RDF>
  </metadata>
  <g
     inkscape:label="Layer 1"
     inkscape:groupmode="layer"
     id="layer1">
    <rect
       style="fill:#ffffff;stroke-width:0.264583"
       id="rect18"
       width="338.61362"
       height="190.0159"
       x="0.18898815"
       y="0.37797618" />
    <g
       inkscape:label="Image"
       id="g48"
       transform="matrix(0.26458334,0,0,0.26458334,31.518489,-26.921355)">
      <g
         id="g56" />
      <path
         style="fill:#ffffff"
         d="m 719.18646,784.97353 c -9.65213,-4.88166 -16.76145,-14.67146 -22.65843,-31.20152 -5.88782,-16.5044 -6.53564,-29.73029 -1.72139,-35.14387 9.35834,-10.52338 36.25863,-2.32533 56.44336,17.2015 l 4.75,4.59518 -0.0435,15.03759 c -0.0374,12.93828 -1.50819,23.4588 -1.6933,23.82959 -0.15543,0.31131 -4.32439,3.05248 -8.76315,5.39582 -3.73636,1.97252 -6.89546,2.74567 -12.5,3.05923 -6.88186,0.38503 -8.02035,0.15644 -13.81354,-2.77352 z M 338.25623,769.35534 c -6.4982,-3.20348 -9.26455,-12.571 -5.73055,-19.405 0.83912,-1.62269 1.70176,-3.04372 1.90555,-3.04372 0.20379,0 3.67039,1.63082 7.71498,3.50992 4.04458,1.87909 9.49129,4.32879 12.10379,5.44377 2.40237,1.0253 4.10568,1.87611 4.86242,2.28733 0,0 0.21603,3.16384 -2.07194,6.55381 -3.92155,5.81036 -11.92492,8.03541 -18.78425,4.65389 z M 660.5,728.04532 c -2.75876,-1.11628 -5.2203,-4.04879 -5.99076,-7.13699 -0.48746,-1.95389 0.007,-3.36888 2.01098,-5.75 5.15065,-6.12119 14.47978,-2.9508 14.47978,4.92076 0,5.14883 -6.07403,9.75712 -10.5,7.96623 z M 491.53298,688.90611 c -3.83186,-1.62768 -16.43186,-6.28035 -28,-10.33927 -26.4085,-9.26597 -39.56509,-14.26211 -56.03298,-21.27816 -10.73875,-4.57518 -34.0906,-15.69202 -35.33532,-16.82167 -0.18443,-0.16738 2.13784,-9.45343 5.16059,-20.63567 8.70091,-32.1877 9.14472,-35.86138 5.68547,-47.06114 -2.92495,-9.46989 -6.69806,-14.13537 -13.48546,-16.67486 -7.18055,-2.68658 -10.84029,-2.63007 -17.02528,0.26291 -11.8407,5.53838 -18.64473,17.60777 -21.50213,38.14175 -1.25639,9.02868 -3.92771,15.94409 -3.92771,15.94409 0,0 -19.4115,-20.96421 -26.49285,-30.44409 -17.11408,-22.91082 -27.30796,-45.88327 -32.17141,-72.5 -2.19339,-12.00397 -3.08634,-54.28182 -1.47296,-69.73875 4.05186,-38.81849 19.17085,-74.0781 45.00972,-104.96894 27.44649,-32.81279 72.68356,-58.3015 124.55734,-70.18153 3.85,-0.88172 14.65,-2.84235 24,-4.35695 16.59223,-2.68778 17.99544,-2.75383 58.5,-2.75383 43.94741,0 53.71022,0.62849 79.5,5.11786 14.13566,2.46067 45.4242,10.55249 46.64031,11.28034 0,0 -0.70302,5.80885 -1.31909,12.12248 -0.9701,9.94188 -0.90804,11.9768 0.46343,15.19373 2.02593,4.75205 5.18361,5.63367 12.22645,3.41361 5.21208,-1.64296 6.41312,-2.34715 20.11694,-11.79494 l 7.12805,-4.91426 11.85935,5.08868 C 719.45062,301.23484 726,308.18559 726,323.25415 726,329.97432 723.16514,339.74249 714.175,364 l -7.39419,19.50031 -9.87148,-0.36094 c -14.47557,-0.52928 -19.59326,2.76279 -27.47936,10.03194 -7.09581,6.5407 -9.89792,12.16711 -9.87524,19.82869 0.0223,7.54348 2.34526,12.86422 8.02408,18.37942 3.60701,3.50308 10.52632,6.32176 15.09336,6.9194 0.32042,0.0419 0.71655,0.039 4.08869,0.44035 0,0 -2.64611,5.08972 -3.54536,6.36679 -3.69961,5.25404 -7.15313,7.80367 -7.15313,7.80367 -0.64365,-0.007 -2.86758,0.074 -6.44599,0.28885 -5.70598,0.34261 -7.99945,1.34882 -9.30366,2.20503 -0.81394,0.53435 -1.29422,1.43435 -1.11367,2.61728 0,0 -2.75009,-0.16167 -5.00866,-0.68855 -3.80387,-0.88737 -9.84321,-3.30778 -19.88115,-7.71183 -30.41413,-13.34392 -47.10113,-18.63025 -70.40541,-22.30394 -16.17028,-2.54908 -58.42528,-2.53881 -71.40383,0.0174 -17.53496,3.45357 -28.23949,10.52233 -31.16289,20.57848 -3.00016,10.32018 -0.26323,19.14157 8.47472,27.3149 11.33097,10.59879 24.6981,17.13651 68.68817,33.59464 37.42499,14.00191 52.73207,20.05926 70.23811,27.79477 16.56659,7.32039 42.52679,20.31984 52.16449,26.12113 9.991,6.01396 25.22522,16.6416 24.90339,17.12342 -1.14405,1.71283 -12.81935,1.98788 -19.05219,1.1039 -4.27572,-0.6064 -7.52728,-0.62149 -8.61387,-0.04 -0.96001,0.51378 -3.02108,3.32832 -4.58015,6.25452 -4.30002,8.07063 -8.00083,11.4912 -13.93942,12.88388 -9.2838,2.17716 -10.90681,3.6323 -9.96748,8.93649 1.53555,8.67088 11.06213,21.0208 19.4392,25.20028 1.87435,0.93516 8.13292,3.99952 13.90792,6.8097 11.96757,5.82356 16.99639,10.17558 20.62771,17.85156 3.86976,8.18001 4.19195,14.66833 1.06729,21.4935 -4.5156,9.86337 -12.55636,12.28679 -22.27376,6.71314 -6.92627,-3.97272 -13.61186,-11.57328 -24.00844,-27.29415 -4.82813,-7.30072 -11.59737,-16.92479 -15.04276,-21.38683 -12.51409,-16.20672 -33.31264,-31.85581 -48.56165,-36.53838 -10.22536,-3.13994 -25.84147,-3.11276 -34.03316,0.0592 -15.11583,5.85318 -27.29214,20.3957 -33.56858,40.09194 -3.08384,9.67744 -3.48181,15.39999 -1.80816,26 0.99609,6.30868 1.21956,10.96403 0.66523,13.85816 -0.90225,4.71071 -4.75203,8.75735 -6.13855,10.1726 0,0 -4.56033,-1.49697 -8.39219,-3.12465 z m -10.8493,-30.84949 c 5.42658,-2.46375 7.32363,-6.17353 7.2905,-14.25696 -0.0306,-7.48018 -3.00827,-16.90916 -7.98564,-25.28749 -4.09121,-6.88666 -14.68034,-18.51603 -20.51517,-22.53049 -4.11619,-2.83202 -14.12879,-6.65959 -15.03924,-5.74914 -0.56453,0.56453 4.98599,32.36471 7.20297,41.26746 2.61832,10.51441 5.50098,17.30131 9.16828,21.58573 5.93364,6.93212 12.1401,8.48415 19.8783,4.97089 z m 49.05931,14.63105 C 527.57888,670.52357 528,668.20513 528,665.5 c 0,-7.63777 9.90815,-12.59185 15,-7.5 3.57339,3.57339 1.87082,10.59665 -3.61488,14.9117 -3.53618,2.78157 -6.16911,3.249 -9.64213,-0.22403 z"
         id="path58"
         sodipodi:nodetypes="sssscsssssssssssssssscssssssssssscssssssssssssscssscssssssssssssssssssssssssssssssssssssssssssssssssssssss" />
    </g>
    <g
       inkscape:groupmode="layer"
       id="layer2"
       inkscape:label="Layer 2" />
    <g
       id="g66"
       transform="translate(34.652123,67.177821)">
      <path
         style="fill:#ffffff;stroke-width:0.264583"
         d="M -34.463135,-66.799845 H 473.53687 V 218.95016 H -34.463135 Z"
         id="path70"
         sodipodi:nodetypes="ccccc" />
      <path
         style="fill:#6c2fbe;stroke-width:0.264583"
         d="M -34.463135,76.075156 V -66.799845 l 99.315516,1e-6 h 99.315509 l -0.21753,1.124479 c -0.3505,1.811807 -0.26347,6.527934 0.15746,8.532813 0.71006,3.38199 3.15021,7.42837 5.79712,9.613075 1.45825,1.203612 5.74768,3.401658 8.35692,4.282372 1.92512,0.649795 3.67701,0.604004 5.88928,-0.153933 1.05928,-0.362914 1.83601,-1.044165 4.8948,-4.293094 7.0323,-7.469453 8.55746,-8.097577 10.20978,-8.415145 0.52917,-0.101704 2.21889,0.0552 3.32761,1.008593 1.00761,0.866454 1.95108,1.57904 2.0966,1.583525 0.14552,0.0045 0.35777,0.251549 1.23089,-0.344189 2.07396,-1.415072 4.29628,-2.533122 5.47431,-2.754121 1.56476,-0.293552 3.21268,0.866035 4.03806,2.841467 0.88054,2.107418 0.33435,3.672856 -2.33144,6.682198 -1.75991,1.98671 -3.92966,3.590986 -8.50384,6.287612 -4.04808,2.386461 -6.45146,3.998123 -9.92188,6.653413 -6.27269,4.799362 -8.20208,7.09359 -8.20208,9.753049 0,2.992806 2.62041,3.487534 7.01146,1.323748 1.49452,-0.736463 1.33496,-0.564893 4.91136,-5.280795 1.45628,-1.920264 3.17783,-3.957966 3.82568,-4.528225 1.95458,-1.720485 5.41663,-2.357392 7.32476,-1.347523 1.28493,0.680043 4.47412,3.535667 5.23999,4.691923 2.85956,4.31715 1.69914,10.014423 -2.47006,12.127116 -1.48066,0.750308 -4.69143,0.481172 -8.40161,0.17408 -3.87774,-0.32096 -6.32908,1.04322 -6.32908,3.442422 0,2.387489 0.79178,3.8282167 3.18812,5.8011338 3.67795,3.0280772 6.82429,3.7507257 13.08989,3.0064819 5.83697,-0.6933274 7.46832,-1.3875702 14.01678,-5.9650067 6.61252,-4.622212 7.84553,-5.26992 10.48822,-5.509553 3.41582,-0.309735 7.18364,2.132129 8.96538,5.810311 1.01036,2.0857411 1.18051,3.6378552 0.65307,5.9568355 -0.82101,3.6097078 -3.36471,6.5970917 -10.11894,11.8839907 -11.18349,8.7538968 -13.90594,12.2312178 -16.16236,20.6437828 -0.51328,1.913657 -1.35167,7.432434 -1.40332,9.237538 -0.0994,3.472968 -0.046,4.019494 0.47779,4.893431 0.24341,0.427717 0.66809,0.757404 0.94033,0.958754 0.51031,0.315372 3.20722,0.198202 4.8214,-0.540799 0.8089,-0.370324 1.67269,-0.763251 1.826,-0.863225 1.17491,-0.599346 2.92502,-1.834424 3.21175,-2.090931 0.19845,-0.181925 1.71996,-1.352125 2.95982,-2.419964 2.54593,-2.1927 7.60563,-4.716528 10.99696,-6.298049 5.11698,-2.38629 10.3075,-3.289294 14.63423,-2.545955 7.37844,1.267631 13.19266,9.019836 14.40966,19.212665 1.26648,10.607334 -4.6433,22.075765 -13.36305,25.932048 -0.79861,0.353182 -2.47393,0.842936 -3.72292,1.088343 -2.84451,0.5589 -5.25796,0.281749 -9.50569,-1.0916 -1.60073,-0.517535 -3.68432,-1.056166 -4.6302,-1.196959 -2.32643,-0.346276 -6.01663,-0.331605 -7.72605,0.03072 -1.60245,0.339654 -3.27805,1.290966 -3.59199,1.548487 -1.67938,1.225631 -3.96384,3.273007 -5.03877,5.377331 -0.30356,0.627047 -0.54553,1.454778 -0.57221,1.902458 -0.11399,0.962682 -0.40139,4.372507 0.8063,6.242679 0.005,0.01024 0.0112,0.02148 0.0183,0.03367 0.31666,0.546768 2.56279,3.009889 4.00675,3.716925 2.04963,1.003597 3.33169,1.237742 6.93793,1.267029 3.92036,0.03183 5.32421,0.549159 5.89833,1.123281 0.32715,0.32716 0.9575,0.658812 0.9575,2.031457 0,1.678874 -0.39386,2.257796 -0.76544,2.648058 -0.36061,0.378735 -0.95821,0.798939 -2.12122,0.798939 -0.74567,0 -2.89628,-0.355778 -4.77914,-0.790612 -2.5876,-0.597599 -4.03701,-0.786183 -5.9369,-0.772459 -5.562,0.04018 -6.63055,1.278315 -3.64205,4.220058 3.10775,3.05912 6.48859,4.39562 15.72972,6.21818 6.18101,1.21904 7.29792,1.56051 8.76546,2.67985 2.53807,1.93587 2.36585,5.87052 -0.36174,8.26537 -2.62612,2.30578 -4.52776,1.86092 -10.17264,-2.37969 -3.72941,-2.80165 -7.00396,-5.01613 -8.4708,-5.30235 -1.55431,-0.30329 -3.14289,-0.235 -4.2505,-0.19424 -1.82186,0.067 -3.37795,0.13875 -5.27037,1.04477 -3.64826,1.74666 -4.75088,3.21479 -4.75088,6.32572 0,2.27752 0.58061,3.48274 2.55994,5.31386 1.93715,1.79209 3.35596,2.25659 7.6149,2.493 6.11319,0.33933 7.98184,0.9091 9.49714,2.89576 1.58601,2.07938 1.98736,4.29843 1.34236,7.42202 -0.24032,1.16379 -0.59907,2.48732 -0.78385,2.94666 -0.82084,2.04052 -2.69588,3.31925 -3.43959,3.77089 -0.48505,0.29456 -1.10791,0.68949 -5.61051,0.63212 l -4.55071,-0.058 -0.37989,1.57814 c -0.278,1.1549 -1.89358,3.38086 -2.79435,3.9626 -0.98366,0.63527 -2.84992,1.26603 -4.15073,1.56933 -0.73982,0.1725 -1.72208,0.54287 -2.18281,0.82306 -0.73637,0.44781 -0.83769,0.6502 -0.83769,1.6733 0,2.91414 3.89277,8.19121 7.31035,9.90999 3.04355,1.48033 5.73432,2.63567 8.30007,4.3645 1.95475,1.05047 2.72847,1.9913 3.63687,3.49695 0.42426,0.70089 0.7569,1.7658 0.84969,2.1296 0.17769,0.6263 0.37349,1.35841 0.44793,2.24404 0.16001,1.49861 -0.0702,5.13513 -2.53825,7.48375 -1.83324,1.74454 -3.26533,2.57776 -5.96813,3.47237 -2.94497,0.97477 -3.30729,1.18369 -3.30729,1.907 0,1.28014 2.309,2.03936 10.31875,3.39293 7.95126,1.34368 11.79724,2.24858 13.22917,3.11261 1.63965,0.98937 4.16936,3.36001 4.63695,4.34534 1.0753,2.26603 -0.2286,7.41236 -2.33481,9.21518 -1.32191,1.13151 -2.34246,1.45849 -5.1103,1.63732 -3.85984,0.24939 -7.85847,-0.9552 -17.56561,-5.29175 -6.40747,-2.86245 -9.81418,-3.65281 -15.0804,-3.49869 -3.49716,0.10234 -6.14607,0.70726 -8.8947,2.03123 -2.53507,1.22108 -5.39762,4.1361 -6.94612,7.07345 -1.23638,2.34527 -2.41543,6.13498 -2.41543,7.7637 v 0.99404 l -228.335045,-6e-5 z M 243.46306,187.73867 c -0.30128,-0.12193 -0.74777,-0.52691 -0.99219,-0.89996 -1.18653,-1.81085 0.0544,-4.13646 2.20721,-4.13646 0.90307,0 1.25007,0.15549 1.90031,0.85159 0.70321,0.75277 0.77994,0.98969 0.66136,2.04179 -0.22009,1.95246 -1.8968,2.9039 -3.77669,2.14304 z m 5.89862,-33.48633 c -3.41815,-1.25482 -5.74016,-4.58546 -5.74514,-8.24072 -0.003,-1.64647 0.0861,-2.00332 0.66667,-2.69331 2.55574,-3.03733 9.46751,-1.46224 11.88884,2.70929 1.26095,2.17239 1.1334,3.88588 -0.46871,6.29631 -1.44436,2.17313 -3.75835,2.87678 -6.34166,1.92843 z m 21.50435,-44.42541 c -5.61853,-1.18522 -12.59139,-5.6153 -14.43347,-9.17007 -1.12622,-2.173377 -1.04243,-3.652464 0.29549,-5.215519 2.36685,-2.765163 9.00491,-4.81299 15.60375,-4.813739 6.15918,-7.94e-4 9.34635,1.57585 11.20748,5.543814 0.60465,1.289146 0.68821,1.805276 0.68821,4.251284 0,2.61164 -0.0537,2.89316 -0.86799,4.54683 -1.03315,2.09827 -2.9369,3.92974 -4.75594,4.57539 -1.67944,0.5961 -5.57543,0.7381 -7.73753,0.28201 z m 11.79748,-45.413742 c -0.43828,-0.52088 -0.68498,-1.132927 -0.68498,-1.69949 0,-0.566563 0.2467,-1.178611 0.68498,-1.699491 0.59365,-0.705524 0.8582,-0.814051 1.98438,-0.814051 0.95509,0 1.4424,0.143013 1.83912,0.539731 1.19771,1.197708 1.23745,2.597021 0.10832,3.815353 -0.50557,0.545539 -0.86969,0.671999 -1.93482,0.671999 -1.14025,0 -1.40169,-0.106569 -1.997,-0.814051 z m -8.10638,-39.219256 c -3.51057,-0.989238 -5.58806,-3.743402 -5.62668,-7.459401 -0.0321,-3.087619 1.26084,-5.297601 3.91996,-6.700325 1.14252,-0.602697 1.64761,-0.698548 3.70416,-0.702932 2.71442,-0.0058 3.63781,0.329703 5.27878,1.917884 2.40152,2.324264 2.98466,5.938747 1.45275,9.004387 -0.445,0.890537 -1.18914,1.940417 -1.65364,2.333067 -1.87098,1.58157 -4.80301,2.247643 -7.07533,1.60732 z m -27.90047,-44.628644 c -1.20439,-0.269188 -1.89328,-0.714349 -2.65893,-1.718154 -2.03372,-2.66636 -0.35841,-6.936362 2.91401,-7.427093 3.26348,-0.489389 6.26515,2.61224 5.45169,5.633226 -0.68305,2.536671 -3.1841,4.075856 -5.70677,3.512021 z m -65.09953,-35.04998 c -1.60357,-1.603566 -0.20937,-4.35414 2.39328,-4.721628 1.45446,-0.205368 3.04271,1.053928 3.04271,2.412524 0,2.246089 -3.85955,3.885549 -5.43599,2.309104 z m 40.85609,-3.903157 c -2.25939,-1.519435 -2.80606,-3.559787 -1.75759,-6.559912 l 0.60103,-1.719791 6.81786,-0.07062 6.81786,-0.07062 0.25974,0.683159 c 0.65556,1.724257 0.17058,3.235287 -1.63031,5.07926 -2.00967,2.057783 -5.59248,3.522069 -8.55043,3.494541 -1.04084,-0.0097 -1.60223,-0.19315 -2.55816,-0.836012 z"
         id="path68"
         sodipodi:nodetypes="ccccsssssssssssssssssssssssssssssssssccsccsssssssssccccssssssssssssssssssssssssscssssscccccssssssssssssscccsssssssccsssssscsssssssssssssssssssssssssssssssscccsssss" />
    </g>
  </g>
</svg>
